<svg xmlns="http://www.w3.org/2000/svg" viewBox="0 0 64 64">
  <rect width="64" height="64" rx="14" fill="#071A38"/>
  <g fill="#F2B544">
    <circle cx="32" cy="32" r="11.5"/>
    <g>
      <polygon points="32,6 28.5,20 35.5,20" transform="rotate(0 32 32)"/>
      <polygon points="32,6 28.5,20 35.5,20" transform="rotate(30 32 32)"/>
      <polygon points="32,6 28.5,20 35.5,20" transform="rotate(60 32 32)"/>
      <polygon points="32,6 28.5,20 35.5,20" transform="rotate(90 32 32)"/>
      <polygon points="32,6 28.5,20 35.5,20" transform="rotate(120 32 32)"/>
      <polygon points="32,6 28.5,20 35.5,20" transform="rotate(150 32 32)"/>
      <polygon points="32,6 28.5,20 35.5,20" transform="rotate(180 32 32)"/>
      <polygon points="32,6 28.5,20 35.5,20" transform="rotate(210 32 32)"/>
      <polygon points="32,6 28.5,20 35.5,20" transform="rotate(240 32 32)"/>
      <polygon points="32,6 28.5,20 35.5,20" transform="rotate(270 32 32)"/>
      <polygon points="32,6 28.5,20 35.5,20" transform="rotate(300 32 32)"/>
      <polygon points="32,6 28.5,20 35.5,20" transform="rotate(330 32 32)"/>
    </g>
  </g>
</svg>
